Coordinates
version=1
nRows=26
nColumns=34
inDegrees=no

Units are S.I. units (second, meters, Newtons, ...)
If the header above contains a line with 'inDegrees', this indicates whether rotational values are in degrees (yes) or radians (no).

endheader
time	pelvis_tilt	pelvis_list	pelvis_rotation	pelvis_tx	pelvis_ty	pelvis_tz	hip_flexion_r	hip_adduction_r	hip_rotation_r	knee_angle_r	ankle_angle_r	subtalar_angle_r	mtp_angle_r	hip_flexion_l	hip_adduction_l	hip_rotation_l	knee_angle_l	ankle_angle_l	subtalar_angle_l	mtp_angle_l	lumbar_extension	lumbar_bending	lumbar_rotation	arm_flex_r	arm_add_r	arm_rot_r	elbow_flex_r	pro_sup_r	arm_flex_l	arm_add_l	arm_rot_l	elbow_flex_l	pro_sup_l
0	0.0475351	0.0481153	0.105459	-0.127305	0.918073	-0.219277	0.492383	-0.114114	-0.0777084	0.176101	0.344973	0.339983	0	-0.391906	0.00728193	0.124128	0.196794	0.433254	0.443789	0	-0.134147	-0.0632157	-0.228417	-0.30262	-0.118644	-0.286006	0.530867	2.09	0.0262374	-0.216803	-0.114824	1.01762	2.09
0.01	0.043391	0.0510052	0.108028	-0.113071	0.917048	-0.218108	0.496095	-0.117431	-0.0895632	0.195186	0.316821	0.335899	0	-0.391835	0.00795504	0.125046	0.214373	0.407394	0.441614	0	-0.128058	-0.0650208	-0.229676	-0.30279	-0.11758	-0.291848	0.526719	2.09	0.0177812	-0.210365	-0.121772	0.999998	2.09
0.02	0.0408677	0.0488071	0.111123	-0.0977879	0.916202	-0.216794	0.495135	-0.115359	-0.102702	0.211174	0.289339	0.33178	0	-0.388699	0.00163585	0.11261	0.240989	0.383219	0.454876	0	-0.120681	-0.0613677	-0.23042	-0.305657	-0.117262	-0.298331	0.523422	2.09	0.00726196	-0.202818	-0.128813	0.980507	2.09
0.03	0.0381881	0.0430599	0.113577	-0.0821891	0.915557	-0.215225	0.493712	-0.108877	-0.114439	0.226412	0.261303	0.329058	0	-0.379825	-0.010923	0.0824789	0.276257	0.36011	0.491356	0	-0.111947	-0.0541068	-0.229859	-0.309122	-0.117346	-0.304346	0.52039	2.09	-0.0037105	-0.194667	-0.136092	0.958409	2.09
0.04	0.035451	0.035804	0.114407	-0.0664507	0.91525	-0.213486	0.49237	-0.0995768	-0.122132	0.24186	0.233995	0.32786	0	-0.367696	-0.0247526	0.0564744	0.315827	0.329609	0.518934	0	-0.102676	-0.0452258	-0.227442	-0.312482	-0.117975	-0.308962	0.517532	2.09	-0.0147217	-0.185883	-0.143943	0.933362	2.09
0.05	0.0321795	0.0279321	0.113398	-0.0505868	0.915195	-0.21149	0.493316	-0.0886743	-0.127298	0.261061	0.210948	0.330734	0	-0.351142	-0.0393723	0.03225	0.360824	0.291966	0.541171	0	-0.0924829	-0.0359293	-0.22287	-0.316133	-0.118642	-0.312833	0.515541	2.09	-0.0259302	-0.176928	-0.152269	0.905827	2.09
0.06	0.0298296	0.0176379	0.110313	-0.0349238	0.915744	-0.20945	0.493116	-0.073955	-0.128829	0.28003	0.189949	0.33275	0	-0.330895	-0.0559897	0.0115929	0.411549	0.245872	0.553172	0	-0.0837252	-0.0233381	-0.216161	-0.318424	-0.120391	-0.315284	0.513844	2.09	-0.0359568	-0.166755	-0.161449	0.874639	2.09
0.07	0.0286897	0.00636427	0.106128	-0.0192468	0.916666	-0.207209	0.491728	-0.0568337	-0.125912	0.300333	0.174928	0.330766	0	-0.307771	-0.0739287	-0.00481527	0.46739	0.191682	0.555133	0	-0.0764549	-0.00962344	-0.20812	-0.320679	-0.12219	-0.316881	0.513643	2.09	-0.0458169	-0.156601	-0.171356	0.841998	2.09
0.08	0.030426	-0.00856553	0.101311	-0.00379438	0.918243	-0.204908	0.482534	-0.033131	-0.113967	0.312138	0.161117	0.314613	0	-0.283253	-0.0962057	-0.0179163	0.527567	0.130115	0.547339	0	-0.0729669	0.00875176	-0.19922	-0.321587	-0.124936	-0.316962	0.514354	2.09	-0.0543762	-0.145703	-0.182179	0.807274	2.09
0.09	0.0275702	-0.017752	0.0929291	0.0112456	0.919325	-0.202309	0.485087	-0.0153855	-0.101932	0.337166	0.159147	0.305233	0	-0.250325	-0.110687	-0.0260266	0.591831	0.0641734	0.52727	0	-0.0659649	0.0198548	-0.186775	-0.323298	-0.126623	-0.316461	0.517636	2.09	-0.0635218	-0.136352	-0.193676	0.774228	2.09
0.1	0.0249354	-0.0261676	0.0839198	0.0259452	0.920526	-0.199682	0.486366	0.00163985	-0.0912333	0.361175	0.16359	0.297977	0	-0.214929	-0.123856	-0.0294508	0.656782	-0.00234944	0.498664	0	-0.0602926	0.0301443	-0.173495	-0.324579	-0.128379	-0.314647	0.522501	2.09	-0.0722186	-0.127564	-0.205839	0.741738	2.09
0.11	0.025058	-0.0378357	0.0752003	0.0401709	0.922318	-0.197215	0.479122	0.0234735	-0.0765474	0.374683	0.166671	0.28166	0	-0.180683	-0.14002	-0.0289928	0.719414	-0.0634062	0.465997	0	-0.0588578	0.0447114	-0.160021	-0.324036	-0.131219	-0.311824	0.527931	2.09	-0.0790379	-0.118273	-0.218499	0.708254	2.09
0.12	0.0274794	-0.0482037	0.0680023	0.0542106	0.924442	-0.194905	0.466775	0.0425377	-0.0672749	0.384703	0.174909	0.272667	0	-0.149212	-0.153432	-0.02186	0.776153	-0.111739	0.432907	0	-0.0606409	0.0577406	-0.147839	-0.3227	-0.134354	-0.305607	0.533553	2.09	-0.085623	-0.110203	-0.231025	0.675993	2.09
0.13	0.0356014	-0.0564281	0.0620687	0.0679708	0.927656	-0.192872	0.441539	0.0599357	-0.0549724	0.383205	0.181879	0.261201	0	-0.126551	-0.161879	-0.00876623	0.821711	-0.143354	0.402556	0	-0.0697831	0.0686831	-0.136814	-0.318349	-0.137449	-0.298081	0.537225	2.09	-0.0905789	-0.103202	-0.243314	0.64308	2.09
0.14	0.0323569	-0.0652962	0.0575898	0.0810505	0.929083	-0.191044	0.434031	0.0747548	-0.0499537	0.390306	0.193881	0.255335	0	-0.082992	-0.174474	0.000747152	0.877005	-0.15125	0.377197	0	-0.0668136	0.0794481	-0.126201	-0.317534	-0.140636	-0.292064	0.546294	2.09	-0.0968757	-0.0969609	-0.254575	0.6147	2.09
0.15	0.0341197	-0.0654506	0.0532006	0.0937828	0.931735	-0.189477	0.417108	0.0802565	-0.0438148	0.391456	0.206388	0.255035	0	-0.0506547	-0.172726	0.0158551	0.915098	-0.142759	0.350803	0	-0.0706689	0.0804496	-0.116786	-0.312395	-0.142689	-0.283881	0.550863	2.09	-0.101974	-0.0932724	-0.264707	0.585796	2.09
0.16	0.0296525	-0.0689651	0.0517923	0.106128	0.93342	-0.188292	0.408311	0.0864004	-0.0448271	0.393898	0.220242	0.258343	0	-0.006318	-0.177579	0.0282394	0.955411	-0.117718	0.325729	0	-0.0673103	0.0849344	-0.109633	-0.309448	-0.145544	-0.276895	0.558928	2.09	-0.108132	-0.0896868	-0.273381	0.560233	2.09
0.17	0.0300904	-0.0653375	0.0520105	0.118255	0.936292	-0.18736	0.390337	0.0847558	-0.0445798	0.390309	0.232885	0.263613	0	0.0271057	-0.170209	0.0444508	0.97878	-0.0847289	0.296978	0	-0.0700059	0.081229	-0.105362	-0.302463	-0.147061	-0.268319	0.562368	2.09	-0.113774	-0.0886317	-0.280416	0.534832	2.09
0.18	0.0270035	-0.0663961	0.0549481	0.130257	0.938597	-0.186725	0.375506	0.0865822	-0.0479552	0.384413	0.244186	0.267738	0	0.0673351	-0.170477	0.0573211	1.00067	-0.045438	0.268402	0	-0.0680024	0.0826141	-0.103328	-0.297343	-0.149464	-0.261131	0.568611	2.09	-0.120877	-0.0873453	-0.28603	0.512751	2.09
0.19	0.0263018	-0.0603053	0.0583382	0.142023	0.941697	-0.186176	0.356535	0.0808844	-0.0499774	0.376429	0.254608	0.273356	0	0.099533	-0.158969	0.0714842	1.00768	-0.00480403	0.236594	0	-0.0693084	0.0756129	-0.103224	-0.289096	-0.150171	-0.253328	0.571213	2.09	-0.128276	-0.0883832	-0.290448	0.492131	2.09
0.2	0.0227089	-0.0584595	0.0624383	0.153768	0.944285	-0.18574	0.340214	0.0791799	-0.0537411	0.366691	0.263697	0.277998	0	0.136427	-0.154253	0.0813493	1.01227	0.0381051	0.208235	0	-0.0666502	0.0732167	-0.103571	-0.282783	-0.151589	-0.247424	0.576744	2.09	-0.137469	-0.0888569	-0.294553	0.475346	2.09
0.21	0.0205427	-0.0509449	0.0659999	0.165281	0.947433	-0.185302	0.321243	0.0717621	-0.0558719	0.355352	0.271663	0.283526	0	0.166687	-0.140446	0.0911425	1.00406	0.0806544	0.181641	0	-0.0662912	0.0641978	-0.104636	-0.274114	-0.151485	-0.241796	0.579799	2.09	-0.147053	-0.0908453	-0.298817	0.460668	2.09
0.22	0.0164371	-0.0477208	0.0688721	0.176841	0.950075	-0.184877	0.304081	0.0686988	-0.0596616	0.342669	0.27888	0.289968	0	0.200052	-0.133668	0.0964643	0.993552	0.124039	0.163975	0	-0.0630886	0.0599225	-0.105036	-0.267194	-0.152175	-0.238436	0.586039	2.09	-0.158575	-0.0913047	-0.30722	0.450924	2.09
0.23	0.0133883	-0.0400565	0.0704992	0.188165	0.953076	-0.184401	0.284903	0.061725	-0.0595249	0.328372	0.284105	0.293517	0	0.227448	-0.12024	0.101285	0.97162	0.163914	0.15208	0	-0.0617985	0.0506296	-0.104493	-0.258913	-0.151652	-0.235747	0.590904	2.09	-0.169573	-0.0935361	-0.311879	0.441675	2.09
0.24	0.00925926	-0.0366815	0.0706625	0.199569	0.955541	-0.18389	0.266833	0.0595236	-0.0593082	0.313064	0.288499	0.296429	0	0.256714	-0.114072	0.101999	0.94786	0.200257	0.15095	0	-0.0586966	0.04625	-0.102303	-0.252424	-0.152063	-0.235334	0.599125	2.09	-0.181902	-0.0941604	-0.32078	0.436627	2.09
0.25	0.00591349	-0.0296018	0.0696828	0.210717	0.958159	-0.183347	0.248004	0.0535331	-0.0577006	0.297708	0.292299	0.299503	0	0.280482	-0.102776	0.102883	0.91399	0.228772	0.156032	0	-0.0573298	0.0377253	-0.0996833	-0.244464	-0.151588	-0.235378	0.606226	2.09	-0.19378	-0.0953568	-0.331909	0.433223	2.09
